<?xml version="1.0" encoding="UTF-8"?>
<svg width="16px" height="12px" viewBox="0 0 16 12" version="1.1" xmlns="http://www.w3.org/2000/svg" xmlns:xlink="http://www.w3.org/1999/xlink">
    <!-- Generator: Sketch 63.1 (92452) - https://sketch.com -->
    <title>ico/facebook copy 2</title>
    <desc>Created with Sketch.</desc>
    <defs>
        <path d="M20.7563282,7.42127961 C20.1765662,7.66278464 19.5533032,7.824038 18.9000396,7.89753953 C19.5675535,7.52253172 20.0798141,6.92851934 20.3213192,6.22200462 C19.6958061,6.56851184 19.0042917,6.82051709 18.2677764,6.95701994 C17.6790141,6.36750766 16.8382466,6 15.9089773,6 C14.1239401,6 12.6756599,7.35677826 12.6756599,9.02931311 C12.6756599,9.26706806 12.7041605,9.49882289 12.7596616,9.7200775 C10.0731057,9.59332485 7.69105606,8.38729973 6.09652284,6.55501156 C5.81826705,7.00277089 5.65926373,7.52253172 5.65926373,8.07829329 C5.65926373,9.12831517 6.23002562,10.0568345 7.09704368,10.5998458 C6.56753265,10.5833455 6.06952228,10.4475927 5.63301319,10.2203379 L5.63301319,10.2593387 C5.63301319,11.7271193 6.74678639,12.9511448 8.2258172,13.2294006 C7.95506156,13.298402 7.66855559,13.3344028 7.37454947,13.3344028 C7.16604512,13.3344028 6.9635409,13.3164024 6.76628679,13.2819017 C7.17729536,14.4841767 8.37132023,15.360945 9.7858497,15.3856955 C8.67957665,16.1979624 7.28604762,16.6817225 5.77101606,16.6817225 C5.51001062,16.6817225 5.25275527,16.6674722 5,16.6397216 C6.4302798,17.4984895 8.1298152,18.001 9.95535323,18.001 C15.9014771,18.001 19.1527948,13.3839038 19.1527948,9.38107043 C19.1527948,9.24906768 19.1490447,9.11931498 19.1430446,8.98881226 C19.7745578,8.56130336 20.3228192,8.02804225 20.7563282,7.42127961 L20.7563282,7.42127961 Z" id="path-1"></path>
    </defs>
    <g id="Symbols" stroke="none" stroke-width="1" fill="none" fill-rule="evenodd">
        <g id="footer" transform="translate(-1312.000000, -48.000000)">
            <g id="ico/twitter" transform="translate(1307.000000, 42.000000)">
                <mask id="mask-2" fill="white">
                    <use xlink:href="#path-1"></use>
                </mask>
                <use id="Shape" fill="#000000" fill-rule="evenodd" xlink:href="#path-1"></use>
                <g id="color/white" mask="url(#mask-2)" fill="#FFFFFF" fill-rule="evenodd">
                    <rect id="Rectangle-3" x="0" y="0" width="25" height="25"></rect>
                </g>
            </g>
        </g>
    </g>
</svg>