<?xml version="1.0" encoding="UTF-8"?>
<svg width="17px" height="15px" viewBox="0 0 17 15" version="1.1" xmlns="http://www.w3.org/2000/svg" xmlns:xlink="http://www.w3.org/1999/xlink">
    <!-- Generator: Sketch 63.1 (92452) - https://sketch.com -->
    <title>ico/phone</title>
    <desc>Created with Sketch.</desc>
    <defs>
        <path d="M15.5563043,9.61521667 C15.4195652,9.47893333 15.3401087,9.28924167 15.3401087,9.09586667 C15.3401087,8.90065 15.4195652,8.71095833 15.5563043,8.574675 C15.6948913,8.43655 15.8852174,8.3592 16.0792391,8.3592 C16.2751087,8.3592 16.4654348,8.43655 16.6021739,8.574675 C16.738913,8.71095833 16.8183696,8.90249167 16.8183696,9.09586667 C16.8183696,9.28924167 16.738913,9.47893333 16.6021739,9.61521667 C16.463587,9.75334167 16.2732609,9.83253333 16.0792391,9.83253333 C15.8852174,9.83253333 15.6948913,9.75334167 15.5563043,9.61521667 L15.5563043,9.61521667 Z M7.44397826,9.05166667 C7.44397826,8.6448425 7.77492391,8.315 8.1831087,8.315 L13.5340435,8.315 C13.9422283,8.315 14.2731739,8.6448425 14.2731739,9.05166667 C14.2731739,9.45849083 13.9422283,9.78833333 13.5340435,9.78833333 L8.1831087,9.78833333 C7.77492391,9.78833333 7.44397826,9.45849083 7.44397826,9.05166667 L7.44397826,9.05166667 Z M19.5217391,14.3925 L17.5222065,14.3925 C17.305087,14.3925 17.0582174,14.4937917 16.9177826,14.6589892 L14.9021739,16.9879608 L14.9021739,15.1415058 C14.9021739,14.7346817 14.652163,14.3925 14.2439783,14.3925 L5.47826087,14.3925 L5.47826087,6.47333333 L19.5217391,6.47333333 L19.5217391,14.3925 Z M20.2608696,5 L4.73913043,5 C4.33094565,5 4,5.3298425 4,5.73666667 L4,15.1415058 C4,15.54833 4.33094565,15.8658333 4.73913043,15.8658333 L13.423913,15.8658333 L13.423913,18.9966667 C13.423913,19.3056983 13.6580326,19.5819483 13.9490652,19.6882125 C14.0322174,19.7186 14.1384674,19.7333333 14.2236522,19.7333333 C14.4367065,19.7333333 14.6545652,19.6351725 14.7977717,19.46666 L17.8647935,15.8658333 L20.2608696,15.8658333 C20.6690543,15.8658333 21,15.54833 21,15.1415058 L21,5.73666667 C21,5.3298425 20.6690543,5 20.2608696,5 L20.2608696,5 Z" id="path-1"></path>
    </defs>
    <g id="Symbols" stroke="none" stroke-width="1" fill="none" fill-rule="evenodd">
        <g id="header/home" transform="translate(-1353.000000, -84.000000)">
            <g id="ico/chat" transform="translate(1349.000000, 79.000000)">
                <mask id="mask-2" fill="white">
                    <use xlink:href="#path-1"></use>
                </mask>
                <use id="message" fill="#000000" fill-rule="evenodd" xlink:href="#path-1"></use>
                <g id="color/white" mask="url(#mask-2)" fill="#FFFFFF" fill-rule="evenodd">
                    <rect id="Rectangle-3" x="0" y="0" width="25" height="25"></rect>
                </g>
            </g>
        </g>
    </g>
</svg>