<?xml version="1.0" encoding="UTF-8"?>
<svg width="11px" height="14px" viewBox="0 0 11 14" version="1.1" xmlns="http://www.w3.org/2000/svg" xmlns:xlink="http://www.w3.org/1999/xlink">
    <!-- Generator: Sketch 63.1 (92452) - https://sketch.com -->
    <title>ico/facebook copy</title>
    <desc>Created with Sketch.</desc>
    <defs>
        <path d="M12.773638,5 C8.935176,5 7,7.73942519 7,10.0246129 C7,11.4075482 7.52579541,12.6380339 8.6543888,13.0969382 C8.83950612,13.1723851 9.00517834,13.0992716 9.05884681,12.895487 C9.0961814,12.7547045 9.18485104,12.3984703 9.22374123,12.2499098 C9.2781875,12.0484586 9.25718679,11.9776784 9.10784845,11.8018947 C8.78194864,11.419993 8.57427501,10.9253098 8.57427501,10.2245085 C8.57427501,8.19210703 10.1018818,6.37282381 12.5519639,6.37282381 C14.7212589,6.37282381 15.9128544,7.69275695 15.9128544,9.45448269 C15.9128544,11.7738938 14.8822643,13.7308483 13.3515463,13.7308483 C12.5068513,13.7308483 11.8744968,13.0347138 12.0767258,12.181463 C12.3201784,11.1633178 12.7899719,10.0635031 12.7899719,9.32770066 C12.7899719,8.6696786 12.4352934,8.12054908 11.7002687,8.12054908 C10.8369064,8.12054908 10.1431054,9.01035669 10.1431054,10.2019522 C10.1431054,10.9618666 10.4005585,11.4752171 10.4005585,11.4752171 C10.4005585,11.4752171 9.51619548,15.2040088 9.36141251,15.857364 C9.05262438,17.1578521 9.31552208,18.75235 9.33730059,18.9141332 C9.35052326,19.0090253 9.47341627,19.0315816 9.52941814,18.9600236 C9.60875414,18.8557979 10.6377886,17.5918666 10.9878004,16.3279354 C11.0865815,15.9701456 11.5555972,14.1174168 11.5555972,14.1174168 C11.8363844,14.6502125 12.6569675,15.120006 13.5288856,15.120006 C16.1259727,15.120006 17.8876984,12.7624825 17.8876984,9.60771005 C17.8876984,7.22218562 15.8584081,5 12.773638,5 L12.773638,5 Z" id="path-1"></path>
    </defs>
    <g id="Symbols" stroke="none" stroke-width="1" fill="none" fill-rule="evenodd">
        <g id="footer" transform="translate(-1339.000000, -47.000000)">
            <g id="ico/flickr" transform="translate(1332.000000, 42.000000)">
                <mask id="mask-2" fill="white">
                    <use xlink:href="#path-1"></use>
                </mask>
                <use id="Shape" fill="#000000" fill-rule="evenodd" xlink:href="#path-1"></use>
                <g id="color/white" mask="url(#mask-2)" fill="#FFFFFF" fill-rule="evenodd">
                    <rect id="Rectangle-3" x="0" y="0" width="25" height="25"></rect>
                </g>
            </g>
        </g>
    </g>
</svg>