<?xml version="1.0" encoding="iso-8859-1"?>
<!-- Generator: Adobe Illustrator 19.0.0, SVG Export Plug-In . SVG Version: 6.00 Build 0)  -->
<svg version="1.1" id="Capa_1" xmlns="http://www.w3.org/2000/svg" xmlns:xlink="http://www.w3.org/1999/xlink" x="0px" y="0px"
	 viewBox="0 0 409.6 409.6" style="enable-background:new 0 0 409.6 409.6;" xml:space="preserve">
<circle style="fill:#EA8953;" cx="204.8" cy="204.8" r="204.8"/>
<path style="opacity:0.1;enable-background:new    ;" d="M403.539,254.308L264.877,115.131l-0.016,0.012
	c-14.009-16.71-37.153-27.67-60.049-27.67c-39.936,0-80.597,33.237-72.32,72.277c9.259,43.477,72.32,162.389,72.32,162.389
	l73.724,73.724C340.168,372.061,387.39,319.341,403.539,254.308z"/>
<path style="fill:#F6C358;" d="M277.089,159.755c8.3-39.052-32.365-72.289-72.289-72.289s-80.589,33.237-72.289,72.289
	c9.238,43.465,72.289,162.378,72.289,162.378S267.851,203.22,277.089,159.755z"/>
<path style="fill:#FCD462;" d="M204.8,322.133c0,0-63.051-118.913-72.289-162.378c-8.3-39.052,32.365-72.289,72.289-72.289V322.133z
	"/>
<circle style="fill:#3A556A;" cx="204.8" cy="159.74" r="51.13"/>
<path style="fill:#2F4859;" d="M204.8,210.883c28.237,0,51.128-22.891,51.128-51.128s-22.891-51.128-51.128-51.128L204.8,210.883
	L204.8,210.883z"/>
<g>
</g>
<g>
</g>
<g>
</g>
<g>
</g>
<g>
</g>
<g>
</g>
<g>
</g>
<g>
</g>
<g>
</g>
<g>
</g>
<g>
</g>
<g>
</g>
<g>
</g>
<g>
</g>
<g>
</g>
</svg>
